<?xml version="1.0" standalone="no"?>
<!DOCTYPE svg PUBLIC "-//W3C//DTD SVG 20010904//EN"
 "http://www.w3.org/TR/2001/REC-SVG-20010904/DTD/svg10.dtd">
<svg version="1.0" xmlns="http://www.w3.org/2000/svg"
 width="700.000000pt" height="700.000000pt" viewBox="0 0 700.000000 700.000000"
 preserveAspectRatio="xMidYMid meet">
<metadata>
Created by potrace 1.11, written by Peter Selinger 2001-2013
</metadata>
<g transform="translate(0.000000,700.000000) scale(0.100000,-0.100000)"
fill="#000000" stroke="none">
<path d="M0 6650 l0 -350 350 0 350 0 75 -156 c41 -86 75 -158 75 -160 0 -1
41 -87 90 -190 49 -102 90 -188 90 -189 0 -2 31 -67 69 -146 38 -79 84 -178
104 -219 19 -41 63 -133 97 -205 67 -139 121 -253 193 -405 24 -52 66 -140 92
-195 26 -55 68 -143 92 -195 25 -52 64 -135 88 -185 24 -49 61 -128 83 -175
22 -47 56 -118 76 -159 l35 -73 -20 -39 c-11 -22 -53 -98 -94 -169 -41 -71
-75 -132 -75 -135 0 -3 -11 -24 -26 -46 -27 -43 -40 -66 -111 -194 -24 -44
-52 -93 -62 -110 -125 -211 -162 -314 -167 -468 -9 -259 98 -475 306 -616 75
-51 137 -78 228 -101 74 -18 157 -18 2220 -19 l2142 -1 0 350 0 350 -2036 0
-2036 0 -29 29 c-38 38 -39 89 -3 151 34 58 63 111 104 185 18 33 40 74 50 90
16 28 65 117 114 207 l20 38 1330 1 c732 0 1351 3 1376 6 76 9 192 50 265 94
117 70 202 163 277 299 14 25 40 72 58 105 18 33 41 74 50 90 9 17 45 82 80
145 34 63 74 135 88 160 13 25 40 74 60 110 19 36 38 70 42 75 4 6 26 44 47
85 22 41 74 136 115 210 41 74 92 167 113 205 21 39 59 108 85 155 67 121 84
151 210 380 62 113 152 277 200 365 49 88 95 183 104 212 49 168 -32 348 -190
420 -29 13 -70 26 -91 28 -21 2 -1206 4 -2634 4 l-2596 1 -36 78 c-19 42 -66
140 -103 217 -36 77 -81 172 -99 210 -17 39 -45 98 -61 133 l-29 62 -572 0
-573 0 0 -350z m4728 -2448 l-523 -522 -5 347 -5 348 -695 0 -695 0 -3 350 -2
350 697 0 698 0 3 350 2 350 525 -525 525 -525 -522 -523z"/>
<path d="M2009 1395 c-3 -3 -19 -6 -35 -9 -125 -15 -267 -90 -370 -194 -215
-218 -264 -550 -120 -822 87 -164 244 -290 431 -345 88 -26 250 -28 347 -5
117 29 253 104 333 184 81 81 153 211 183 328 25 98 24 265 -3 353 -72 240
-236 408 -477 486 -59 19 -276 37 -289 24z"/>
<path d="M5456 1383 c-277 -59 -491 -277 -544 -553 -8 -42 -8 -225 0 -260 49
-213 153 -359 329 -468 115 -70 202 -94 349 -96 186 -1 307 39 445 150 112 88
187 199 237 349 29 89 33 266 7 365 -66 248 -248 434 -494 505 -80 23 -241 27
-329 8z"/>
</g>
</svg>
