<svg width="30" height="30" viewBox="0 0 30 30" fill="none" xmlns="http://www.w3.org/2000/svg">
<path d="M12 27C12 27.7957 11.6839 28.5587 11.1213 29.1213C10.5587 29.6839 9.79565 30 9 30C8.20435 30 7.44129 29.6839 6.87868 29.1213C6.31607 28.5587 6 27.7957 6 27C6 26.2044 6.31607 25.4413 6.87868 24.8787C7.44129 24.3161 8.20435 24 9 24C9.79565 24 10.5587 24.3161 11.1213 24.8787C11.6839 25.4413 12 26.2044 12 27ZM24 24C23.2044 24 22.4413 24.3161 21.8787 24.8787C21.3161 25.4413 21 26.2044 21 27C21 27.7957 21.3161 28.5587 21.8787 29.1213C22.4413 29.6839 23.2044 30 24 30C24.7956 30 25.5587 29.6839 26.1213 29.1213C26.6839 28.5587 27 27.7957 27 27C27 26.2044 26.6839 25.4413 26.1213 24.8787C25.5587 24.3161 24.7956 24 24 24ZM9.3 18.945C9.285 19.005 9.285 19.065 9.3 19.125C9.3 19.2245 9.33951 19.3198 9.40984 19.3902C9.48016 19.4605 9.57554 19.5 9.675 19.5H27V22.5H9C8.20435 22.5 7.44129 22.1839 6.87868 21.6213C6.31607 21.0587 6 20.2956 6 19.5C6 18.975 6.105 18.465 6.36 18L8.4 14.385L3 3H0V0H4.905L6.315 3H28.5C28.8978 3 29.2794 3.15804 29.5607 3.43934C29.842 3.72064 30 4.10218 30 4.5C30 4.755 29.925 5.01 29.82 5.25L24.45 15C23.91 15.93 22.905 16.5 21.825 16.5H10.65L9.3 18.945ZM12 11.25H18V14.25L22.5 9.75L18 5.25V8.25H12V11.25Z" fill="white"/>
</svg>
