<svg width="50" height="50" viewBox="0 0 50 50" fill="none" xmlns="http://www.w3.org/2000/svg">
<path d="M20 45C20 46.3261 19.4732 47.5979 18.5355 48.5355C17.5979 49.4732 16.3261 50 15 50C13.6739 50 12.4021 49.4732 11.4645 48.5355C10.5268 47.5979 10 46.3261 10 45C10 43.6739 10.5268 42.4021 11.4645 41.4645C12.4021 40.5268 13.6739 40 15 40C16.3261 40 17.5979 40.5268 18.5355 41.4645C19.4732 42.4021 20 43.6739 20 45ZM40 40C38.6739 40 37.4021 40.5268 36.4645 41.4645C35.5268 42.4021 35 43.6739 35 45C35 46.3261 35.5268 47.5979 36.4645 48.5355C37.4021 49.4732 38.6739 50 40 50C41.3261 50 42.5979 49.4732 43.5355 48.5355C44.4732 47.5979 45 46.3261 45 45C45 43.6739 44.4732 42.4021 43.5355 41.4645C42.5979 40.5268 41.3261 40 40 40ZM15.5 31.575C15.475 31.675 15.475 31.775 15.5 31.875C15.5 32.0408 15.5658 32.1997 15.6831 32.3169C15.8003 32.4342 15.9592 32.5 16.125 32.5H45V37.5H15C13.6739 37.5 12.4021 36.9732 11.4645 36.0355C10.5268 35.0979 10 33.8261 10 32.5C10 31.625 10.175 30.775 10.6 30L14 23.975L5 5H0V0H8.175L10.525 5H47.5C48.163 5 48.7989 5.26339 49.2678 5.73223C49.7366 6.20107 50 6.83696 50 7.5C50 7.925 49.875 8.35 49.7 8.75L40.75 25C39.85 26.55 38.175 27.5 36.375 27.5H17.75L15.5 31.575ZM20 18.75H30V23.75L37.5 16.25L30 8.75V13.75H20V18.75Z" fill="white"/>
</svg>
